#N canvas 250 197 1030 457 10;
#X obj 193 368 output~;
#X obj 205 68 tgl 15 0 empty empty empty 17 7 0 10 -262144 -1 -1 1
1;
#X obj 314 197 trio mb-us1;
#X obj 406 197 trio mb-us2;
#X obj 508 197 trio mb-us3;
#X obj 314 223 *~ 0.333333;
#X obj 508 223 *~ 0.333333;
#X obj 406 223 *~ 0.333333;
#N canvas 301 112 645 469 rotating_pan 0;
#X obj 226 76 inlet~;
#X obj 32 302 outlet~;
#X obj 123 308 outlet~;
#X obj 44 208 cos~;
#X obj 30 234 *~;
#X obj 102 188 +~ 0.75;
#X obj 102 210 cos~;
#X obj 100 242 *~;
#X obj 420 60 inlet~;
#X obj 226 212 cos~;
#X obj 212 238 *~;
#X obj 284 192 +~ 0.75;
#X obj 284 214 cos~;
#X obj 282 246 *~;
#X obj 554 66 inlet~;
#X obj 366 216 cos~;
#X obj 352 242 *~;
#X obj 424 196 +~ 0.75;
#X obj 424 218 cos~;
#X obj 422 250 *~;
#X obj 182 151 +~ 0.125;
#X obj 302 153 +~ 0.25;
#X obj 74 90 phasor~ 0.125;
#X obj 88 34 inlet~;
#X connect 0 0 4 0;
#X connect 0 0 7 0;
#X connect 3 0 4 1;
#X connect 4 0 1 0;
#X connect 5 0 6 0;
#X connect 6 0 7 1;
#X connect 7 0 2 0;
#X connect 8 0 10 0;
#X connect 8 0 13 0;
#X connect 9 0 10 1;
#X connect 10 0 1 0;
#X connect 11 0 12 0;
#X connect 12 0 13 1;
#X connect 13 0 2 0;
#X connect 14 0 16 0;
#X connect 14 0 19 0;
#X connect 15 0 16 1;
#X connect 16 0 1 0;
#X connect 17 0 18 0;
#X connect 18 0 19 1;
#X connect 19 0 2 0;
#X connect 20 0 9 0;
#X connect 20 0 11 0;
#X connect 21 0 15 0;
#X connect 21 0 17 0;
#X connect 22 0 3 0;
#X connect 22 0 5 0;
#X connect 22 0 20 0;
#X connect 22 0 21 0;
#X connect 23 0 22 0;
#X restore 189 298 pd rotating_pan;
#X obj 154 164 vsl 14 106 0.125 8 0 0 empty empty empty 0 -9 0 10 -262144
-1 -1 0 1;
#X floatatom 150 292 5 0 0 0 - - -, f 5;
#X text 4 292 rotation frequency (Hz);
#X connect 1 0 2 0;
#X connect 1 0 4 0;
#X connect 1 0 3 0;
#X connect 2 0 5 0;
#X connect 3 0 7 0;
#X connect 4 0 6 0;
#X connect 5 0 8 1;
#X connect 6 0 8 3;
#X connect 7 0 8 2;
#X connect 8 0 0 0;
#X connect 8 1 0 1;
#X connect 9 0 8 0;
#X connect 9 0 10 0;
