#N canvas 414 367 452 305 10;
#X obj 102 150 readsf~ 1 10000;
#X msg 68 122 start;
#X obj 120 44 t b b;
#X obj 68 94 del 50;
#X obj 42 10 inlet;
#X obj 148 72 symbol \$1;
#X obj 104 212 outlet~;
#X msg 124 104 open \$1;
#X obj 176 16 loadbang;
#X obj 16 46 sel 0;
#X obj 120 16 sel 1;
#X msg 16 68 0;
#X connect 0 0 6 0;
#X connect 0 1 2 0;
#X connect 1 0 0 0;
#X connect 2 0 3 0;
#X connect 2 1 5 0;
#X connect 3 0 1 0;
#X connect 4 0 9 0;
#X connect 4 0 10 0;
#X connect 5 0 7 0;
#X connect 7 0 0 0;
#X connect 8 0 5 0;
#X connect 9 0 11 0;
#X connect 10 0 2 0;
#X connect 11 0 0 0;
