#N canvas 341 191 835 367 10;
#X obj 54 22 inlet;
#X obj 54 126 *~ 0.33333;
#X obj 54 148 outlet~;
#X obj 54 74 play_loop ../audio/\$1-0.wav;
#X obj 242 74 play_loop ../audio/\$1-50.wav;
#X obj 436 74 play_loop ../audio/\$1-99.wav;
#X connect 0 0 3 0;
#X connect 0 0 4 0;
#X connect 0 0 5 0;
#X connect 1 0 2 0;
#X connect 3 0 1 0;
#X connect 4 0 1 0;
#X connect 5 0 1 0;
